<svg id="dashboard-mockup" xmlns="http://www.w3.org/2000/svg" viewBox="0 0 657 355" shape-rendering="geometricPrecision" text-rendering="geometricPrecision"><style>@keyframes dashboard-mockup-u-reblog_tr__tr{0%{transform:translate(414.52px,267.364px)}30%{transform:translate(414.52px,267.364px)}50%{transform:translate(414.52px,267.364px)rotate(360deg)}80%{transform:translate(414.52px,267.364px)rotate(360deg)}to{transform:translate(414.52px,267.364px)}}@keyframes dashboard-mockup-u-reblog_ts__ts{0%{transform:scale(1)}30%{transform:scale(1)}40%{transform:scale(1.6)}50%{transform:scale(1)}80%{transform:scale(1)}90%{transform:scale(1.6)}to{transform:scale(1)}}@keyframes dashboard-mockup-s-g12_ts__ts{0%{transform:translate(328.506px,154.507px)}30%{transform:translate(328.506px,154.507px)}40%{transform:matrix(1.3,0,0,1.3,328.506,154.507)}50%{transform:translate(328.506px,154.507px)}80%{transform:translate(328.506px,154.507px)}90%{transform:matrix(1.3,0,0,1.3,328.506,154.507)}to{transform:translate(328.506px,154.507px)}}#dashboard-mockup-icon{animation:2s step-end infinite forwards color-change-icon}@keyframes color-change-icon{0%{fill:#a2c244}50%{fill:#db8e62}to{fill:#a2c244}}@keyframes color-change-background{0%{fill:#ebf3bb}50%{fill:#f3edbb}to{fill:#ebf3bb}}</style><defs><linearGradient id="dashboard-mockup-s-path15-fill" x1="221.414" y1="67.219" x2="306.995" y2="67.219" spreadMethod="pad" gradientUnits="userSpaceOnUse"><stop id="dashboard-mockup-s-path15-fill-0" offset="0%" stop-color="#d3c89f"/><stop id="dashboard-mockup-s-path15-fill-1" offset="100%" stop-color="#e3e3cb"/></linearGradient><linearGradient id="dashboard-mockup-s-path26-fill" x1="217.903" y1="270.009" x2="245.991" y2="270.009" spreadMethod="pad" gradientUnits="userSpaceOnUse"><stop id="dashboard-mockup-s-path26-fill-0" offset="0%" stop-color="#d3c89f"/><stop id="dashboard-mockup-s-path26-fill-1" offset="100%" stop-color="rgba(211,200,159,0.7)"/></linearGradient></defs><g id="dashboard-mockup-s-g1" transform="translate(0 -1.98)" clip-path="url('#dashboard-mockup-u-clip0_215_491')"><g id="dashboard-mockup-s-g2"><g id="dashboard-mockup-s-g3"><path id="dashboard-mockup-s-path1" d="M569.224.651H88.214c-6.302 0-11.41 5.132-11.41 11.462v318.292c0 6.33 5.108 11.462 11.41 11.462h481.01c6.302 0 11.411-5.132 11.411-11.462V12.113c0-6.33-5.109-11.462-11.411-11.462Z" fill="#c5c5c5"/><path id="dashboard-mockup-s-path2" d="M567.908 2.855H89.092c-5.575 0-10.094 4.54-10.094 10.14v316.087c0 5.6 4.52 10.14 10.094 10.14h478.816c5.575 0 10.094-4.54 10.094-10.14V12.995c0-5.6-4.519-10.14-10.094-10.14Z" fill="#010101"/><path id="dashboard-mockup-s-path3" d="M0 339.662a.44.44 0 0 1 .439-.44H656.56a.44.44 0 0 1 .439.44v1.764H0v-1.764Z" fill="#b9b8bd"/><path id="dashboard-mockup-s-path4" d="M0 341.426h657c-31.257 9.171-58.941 11.173-113.23 13.225H115.425C68.037 353.347 42.763 350.419 0 341.426Z" fill="#7e7e7e"/><path id="dashboard-mockup-s-path5" d="M555.619 24.898H101.381v285.668h454.238V24.898Z" fill="#283137"/><path id="dashboard-mockup-s-path6" d="M272.982 339.222H383.14v2.645c0 .73-.589 1.322-1.316 1.322H274.299a1.32 1.32 0 0 1-1.317-1.322v-2.645Z" fill="#c4c4c4"/><path id="dashboard-mockup-s-path7" d="M378.751 339.222h4.389v2.645c0 .73-.589 1.322-1.316 1.322h-3.073v-3.967Z" fill="#a5a5a5"/><path id="dashboard-mockup-s-path8" d="M277.371 339.222h-4.389v2.645c0 .73.589 1.322 1.317 1.322h3.072v-3.967Z" fill="#a5a5a5"/></g><g id="dashboard-mockup-s-g4" mask="url('#dashboard-mockup-u-mask0_215_491')"><g id="dashboard-mockup-s-g5"><path id="dashboard-mockup-s-path10" d="M182.902 19.167v297.131" fill="none" stroke="#627480" stroke-width=".5"/><g id="dashboard-mockup-s-g6" mask="url('#dashboard-mockup-u-mask1_215_491')"><g id="dashboard-mockup-s-g7"><path id="dashboard-mockup-s-path11" d="M456.652-187.59H200.348a3.518 3.518 0 0 0-3.511 3.526V32.833a3.518 3.518 0 0 0 3.511 3.527h256.304a3.519 3.519 0 0 0 3.511-3.527v-216.897a3.519 3.519 0 0 0-3.511-3.526Z" fill="#fff"/></g><mask id="dashboard-mockup-u-mask1_215_491" mask-type="luminance" x="-150%" y="-150%" height="400%" width="400%"><path id="dashboard-mockup-s-path12" d="M456.652-187.59H200.348a3.518 3.518 0 0 0-3.511 3.526V32.833a3.518 3.518 0 0 0 3.511 3.527h256.304a3.519 3.519 0 0 0 3.511-3.527v-216.897a3.519 3.519 0 0 0-3.511-3.526Z" fill="#fff"/></mask></g><g id="dashboard-mockup-s-g8" mask="url('#dashboard-mockup-u-mask2_215_491')"><g id="dashboard-mockup-s-g9"><path id="dashboard-mockup-s-path13" d="M456.652 46.94H200.348a3.518 3.518 0 0 0-3.511 3.527v234.53a3.518 3.518 0 0 0 3.511 3.527h256.304a3.519 3.519 0 0 0 3.511-3.527V50.467a3.519 3.519 0 0 0-3.511-3.527Z" fill="#fff"/><g id="dashboard-mockup-s-g10" opacity=".7"><path id="dashboard-mockup-s-path14" d="M208.192 64.574a3.153 3.153 0 0 1 .917-2.22 3.123 3.123 0 0 1 2.21-.921h4.074l-.145-.145a.498.498 0 0 1 .35-.848.489.489 0 0 1 .349.145l.988.992a.499.499 0 0 1 0 .703l-.988.992a.491.491 0 0 1-.699 0 .497.497 0 0 1 0-.703l.145-.144h-4.074c-.567 0-1.111.227-1.512.63s-.627.95-.627 1.519a.496.496 0 0 1-.494.496.493.493 0 0 1-.494-.496Zm8.394-.496a.496.496 0 0 0-.494.496 2.159 2.159 0 0 1-.627 1.52c-.401.402-.945.629-1.512.63h-4.073l.144-.146a.499.499 0 0 0-.349-.848.494.494 0 0 0-.35.145l-.988.992a.498.498 0 0 0 0 .703l.988.992a.486.486 0 0 0 .35.145.489.489 0 0 0 .456-.306.494.494 0 0 0-.107-.542l-.144-.144h4.073c.829 0 1.624-.332 2.21-.92s.916-1.388.917-2.221a.496.496 0 0 0-.494-.496Z" fill="#d3c89f"/></g><path id="dashboard-mockup-s-path15" d="M304.362 61.929h-80.315c-1.454 0-2.633 1.184-2.633 2.645s1.179 2.645 2.633 2.645h80.315c1.454 0 2.633-1.184 2.633-2.645s-1.179-2.645-2.633-2.645Z" fill="url('#dashboard-mockup-s-path15-fill')"/><g id="dashboard-mockup-s-g11" opacity=".7"><path id="dashboard-mockup-s-path16" d="M438.219 65.897a1.323 1.323 0 0 1-1.316-1.323c0-.35.138-.687.385-.935a1.314 1.314 0 0 1 1.862 0 1.329 1.329 0 0 1 0 1.87 1.31 1.31 0 0 1-.931.388Zm4.389 0c-.351 0-.685-.14-.93-.388-.246-.248-.387-.584-.387-.935s.141-.687.387-.935a1.308 1.308 0 0 1 1.861 0c.245.248.386.584.386.935s-.141.687-.386.935c-.246.248-.58.388-.931.388Zm4.389 0c-.351 0-.685-.14-.931-.388-.245-.248-.386-.584-.386-.935s.141-.687.386-.935a1.308 1.308 0 0 1 1.861 0c.246.248.387.584.387.935s-.141.687-.387.935a1.304 1.304 0 0 1-.93.388Z" fill="#d3c89f"/></g><path id="dashboard-mockup-s-path17" d="M217.903 82.208h-7.022a3.519 3.519 0 0 0-3.511 3.527v7.053a3.519 3.519 0 0 0 3.511 3.527h7.022a3.519 3.519 0 0 0 3.511-3.527v-7.053a3.519 3.519 0 0 0-3.511-3.527Z" fill="#f3f3d8"/><path id="dashboard-mockup-s-path18" d="M211.923 92.237s-.494 0-.494-.496.494-1.984 2.963-1.984c2.468 0 2.962 1.488 2.962 1.984s-.494.496-.494.496h-4.937Zm2.469-2.976a1.49 1.49 0 0 0 0-2.976c-.393 0-.77.158-1.048.437a1.494 1.494 0 0 0 0 2.103c.278.28.655.436 1.048.436Z" fill="#2d2d29"/><path id="dashboard-mockup-s-path19" d="M267.935 86.616h-38.621a2.64 2.64 0 0 0-2.634 2.645 2.64 2.64 0 0 0 2.634 2.645h38.621a2.64 2.64 0 0 0 2.633-2.645 2.64 2.64 0 0 0-2.633-2.645Z" fill="#d3c89f"/><path d="M460.163 101.605H196.837v105.803h263.326V101.605Z" fill="#ebf3bb" style="animation:2s step-end infinite forwards color-change-background"/><g transform="translate(328.506 154.507)" style="animation:2s linear infinite forwards dashboard-mockup-s-g12_ts__ts"><g id="dashboard-mockup-s-g12" transform="translate(-328.506 -154.507)" mask="url('#dashboard-mockup-u-mask3_215_491')"><g id="dashboard-mockup-icon" style="fill:#a2c244"><path id="dashboard-mockup-s-path21" d="M323.02 147.619a4.146 4.146 0 0 1-1.205 2.922 4.108 4.108 0 0 1-5.82 0 4.145 4.145 0 0 1 0-5.845 4.108 4.108 0 0 1 5.82 0 4.146 4.146 0 0 1 1.205 2.923Z"/><path id="dashboard-mockup-s-path22" d="M312.048 135.22c-1.456 0-2.851.58-3.879 1.614a5.517 5.517 0 0 0-1.607 3.896v27.553c0 1.462.577 2.864 1.607 3.897a5.472 5.472 0 0 0 3.879 1.614h32.916c1.454 0 2.85-.581 3.878-1.614a5.519 5.519 0 0 0 1.608-3.897V140.73a5.518 5.518 0 0 0-1.608-3.896 5.469 5.469 0 0 0-3.878-1.614h-32.916Zm32.916 2.755c.727 0 1.425.29 1.939.807s.804 1.217.804 1.948v17.91l-10.361-5.365a1.37 1.37 0 0 0-1.583.256l-10.176 10.223-7.296-4.883a1.37 1.37 0 0 0-1.729.171l-7.257 6.486V140.73c0-.731.289-1.431.803-1.948s1.212-.807 1.94-.807h32.916Z"/></g></g><mask id="dashboard-mockup-u-mask3_215_491" mask-type="luminance" x="-150%" y="-150%" height="400%" width="400%"><path id="dashboard-mockup-s-path23" d="M350.444 132.464h-43.888v44.085h43.888v-44.085Z" fill="#fff"/></mask></g><path id="dashboard-mockup-s-path24" d="M446.997 217.989H210.003c-1.454 0-2.633 1.184-2.633 2.645s1.179 2.645 2.633 2.645h236.994c1.454 0 2.633-1.184 2.633-2.645s-1.179-2.645-2.633-2.645Z" opacity=".7" fill="#d3c89f"/><path id="dashboard-mockup-s-path25" d="M365.366 228.569H210.003c-1.454 0-2.633 1.184-2.633 2.645s1.179 2.645 2.633 2.645h155.363c1.454 0 2.633-1.184 2.633-2.645s-1.179-2.645-2.633-2.645Z" opacity=".7" fill="#d3c89f"/><path id="dashboard-mockup-s-path26" d="M243.358 264.718h-22.822a2.64 2.64 0 0 0-2.633 2.646 2.64 2.64 0 0 0 2.633 2.645h22.822a2.64 2.64 0 0 0 2.633-2.645 2.64 2.64 0 0 0-2.633-2.646Z" fill="url('#dashboard-mockup-s-path26-fill')"/><path id="dashboard-mockup-s-path27" d="M246.869 257.775h-29.844c-5.272 0-9.546 4.293-9.546 9.589 0 5.295 4.274 9.588 9.546 9.588h29.844c5.272 0 9.545-4.293 9.545-9.588 0-5.296-4.273-9.589-9.545-9.589Z" fill="none" stroke="#d3c89f" stroke-width=".5" stroke-linejoin="round"/><g id="dashboard-mockup-s-g14" mask="url('#dashboard-mockup-u-mask4_215_491')"><g id="dashboard-mockup-s-g15"><path id="dashboard-mockup-s-path28" d="M361.275 263.907a.17.17 0 0 0-.08-.014.167.167 0 0 0-.133.089.158.158 0 0 0-.019.08v1.334a.575.575 0 0 1-.576.579c-.769 0-2.32.006-3.802.951-1.134.722-2.293 2.037-2.99 4.485 1.176-1.137 2.518-1.754 3.693-2.081a9.986 9.986 0 0 1 2.213-.354c.306-.014.613-.011.919.009h.015l.006.001-.054.576.057-.576a.579.579 0 0 1 .519.576v1.334c0 .126.127.204.232.156l4.59-3.394a.525.525 0 0 1 .049-.033.172.172 0 0 0 .06-.23.175.175 0 0 0-.06-.061c-.017-.011-.033-.021-.049-.033l-4.59-3.394Zm-1.384 6.218a8.874 8.874 0 0 0-2.216.32c-1.528.426-3.336 1.391-4.539 3.564a.577.577 0 0 1-.682.269.577.577 0 0 1-.393-.621c.535-4.294 2.173-6.553 3.986-7.708 1.435-.914 2.911-1.09 3.844-1.123v-.764a1.323 1.323 0 0 1 1.369-1.323c.237.009.467.082.666.212l4.602 3.402a1.323 1.323 0 0 1 .621 1.126 1.331 1.331 0 0 1-.621 1.126l-4.602 3.402a1.309 1.309 0 0 1-1.347.053 1.324 1.324 0 0 1-.688-1.164v-.771Z" opacity=".7" fill="#d3c89f"/><g id="dashboard-mockup-s-g16" mask="url('#dashboard-mockup-u-mask5_215_491')"><g id="dashboard-mockup-s-g17"><path id="dashboard-mockup-s-path29" d="M381.76 270.797a.88.88 0 0 1 .252.706 9.703 9.703 0 0 1-.349 1.763c1.224-.284 1.972-.614 2.312-.787a.874.874 0 0 1 .623-.065c.598.16 1.215.241 1.834.24 3.507 0 6.144-2.475 6.144-5.29s-2.637-5.291-6.144-5.291c-3.508 0-6.145 2.476-6.145 5.291 0 1.294.542 2.495 1.473 3.433Zm-.432 3.443a22.19 22.19 0 0 1-.626.114c-.176.028-.309-.156-.24-.32a8.63 8.63 0 0 0 .214-.561l.003-.009a9.232 9.232 0 0 0 .46-2.045c-1.077-1.084-1.729-2.504-1.729-4.055 0-3.409 3.144-6.172 7.022-6.172s7.022 2.763 7.022 6.172c0 3.408-3.144 6.171-7.022 6.171a7.956 7.956 0 0 1-2.06-.269c-.457.231-1.439.654-3.044.974Z" opacity=".7" fill="#d3c89f"/></g><mask id="dashboard-mockup-u-mask5_215_491" mask-type="luminance" x="-150%" y="-150%" height="400%" width="400%"><path id="dashboard-mockup-s-path30" d="M393.454 260.31H379.41v14.107h14.044V260.31Z" fill="#fff"/></mask></g><g style="animation:2s linear infinite forwards dashboard-mockup-u-reblog_tr__tr"><g transform="translate(414.52 267.364)" style="animation:2s linear infinite forwards dashboard-mockup-u-reblog_ts__ts"><g id="dashboard-mockup-icon" style="fill:#a2c244"><path id="dashboard-mockup-u-reblog" d="M405.962 267.364a5.977 5.977 0 0 1 1.737-4.207 5.923 5.923 0 0 1 4.188-1.745h8.944l-.852-.855a.66.66 0 0 1 0-.935.659.659 0 0 1 .931 0l1.975 1.984a.662.662 0 0 1 .144.72.655.655 0 0 1-.144.215l-1.975 1.984a.656.656 0 0 1-1.124-.468c0-.175.069-.344.193-.468l.852-.854h-8.944a4.598 4.598 0 0 0-3.257 1.357 4.648 4.648 0 0 0-1.352 3.272.663.663 0 0 1-.658.661.66.66 0 0 1-.658-.661Zm16.458-.662a.659.659 0 0 0-.659.662c-.001 1.227-.487 2.403-1.351 3.271s-2.035 1.356-3.257 1.357h-8.944l.852-.854a.674.674 0 0 0 .193-.468.664.664 0 0 0-.659-.662.662.662 0 0 0-.466.194l-1.974 1.984a.655.655 0 0 0-.144.721c.034.08.082.153.144.214l1.974 1.984a.662.662 0 0 0 .466.194.659.659 0 0 0 .609-.915.659.659 0 0 0-.143-.214l-.852-.855h8.944a5.923 5.923 0 0 0 4.188-1.745 5.977 5.977 0 0 0 1.737-4.206.66.66 0 0 0-.658-.662Z" transform="translate(-414.52 -267.364)"/></g></g></g><g id="dashboard-mockup-s-g18" mask="url('#dashboard-mockup-u-mask6_215_491')"><g id="dashboard-mockup-s-g19"><path id="dashboard-mockup-s-path31" d="m442.608 265.808-.785-1.577c-.194-.391-.532-.952-1.01-1.406-.47-.447-1.036-.752-1.716-.752-1.471 0-2.633 1.17-2.633 2.575 0 1.068.486 1.822 1.639 2.971.296.295.633.613 1.007.964.97.917 2.181 2.058 3.498 3.583 1.317-1.525 2.528-2.666 3.498-3.583.373-.351.711-.67 1.005-.964 1.154-1.149 1.641-1.903 1.641-2.971 0-1.405-1.163-2.575-2.633-2.575-.68 0-1.246.305-1.716.752-.478.454-.816 1.015-1.009 1.406l-.786 1.577Zm.342 7.311a.401.401 0 0 1-.153.119c-.057.028-.123.042-.189.042s-.132-.014-.189-.042a.401.401 0 0 1-.153-.119c-1.409-1.677-2.677-2.876-3.726-3.862-1.813-1.71-2.954-2.785-2.954-4.609 0-1.909 1.571-3.456 3.511-3.456 1.404 0 2.388.925 2.989 1.77.228.322.399.631.522.875.154-.305.325-.597.522-.875.602-.845 1.585-1.77 2.989-1.77 1.94 0 3.511 1.547 3.511 3.456 0 1.824-1.141 2.899-2.953 4.609-1.049.987-2.318 2.187-3.727 3.862Z" opacity=".7" fill="#d3c89f"/></g><mask id="dashboard-mockup-u-mask6_215_491" mask-type="luminance" x="-150%" y="-150%" height="400%" width="400%"><path id="dashboard-mockup-s-path32" d="M449.63 260.31h-14.044v14.107h14.044V260.31Z" fill="#fff"/></mask></g></g><mask id="dashboard-mockup-u-mask4_215_491" mask-type="luminance" x="-150%" y="-150%" height="400%" width="400%"><path id="dashboard-mockup-s-path33" d="M449.63 256.783h-99.186v21.161h99.186v-21.161Z" fill="#fff"/></mask></g></g><mask id="dashboard-mockup-u-mask2_215_491" mask-type="luminance" x="-150%" y="-150%" height="400%" width="400%"><path id="dashboard-mockup-s-path34" d="M456.652 46.94H200.348a3.518 3.518 0 0 0-3.511 3.527v234.53a3.518 3.518 0 0 0 3.511 3.527h256.304a3.519 3.519 0 0 0 3.511-3.527V50.467a3.519 3.519 0 0 0-3.511-3.527Z" fill="#fff"/></mask></g><g id="dashboard-mockup-s-g20" mask="url('#dashboard-mockup-u-mask7_215_491')"><g id="dashboard-mockup-s-g21"><path id="dashboard-mockup-s-path35" d="M456.652 299.104H200.348a3.518 3.518 0 0 0-3.511 3.527v216.897a3.518 3.518 0 0 0 3.511 3.527h256.304a3.519 3.519 0 0 0 3.511-3.527V302.631a3.519 3.519 0 0 0-3.511-3.527Z" fill="#fff"/></g><mask id="dashboard-mockup-u-mask7_215_491" mask-type="luminance" x="-150%" y="-150%" height="400%" width="400%"><path id="dashboard-mockup-s-path36" d="M456.652 299.104H200.348a3.518 3.518 0 0 0-3.511 3.527v216.897a3.518 3.518 0 0 0 3.511 3.527h256.304a3.519 3.519 0 0 0 3.511-3.527V302.631a3.519 3.519 0 0 0-3.511-3.527Z" fill="#fff"/></mask></g><path id="dashboard-mockup-s-path37" d="M474.317 19.167v297.131" fill="none" stroke="#627480" stroke-width=".5"/></g><mask id="dashboard-mockup-u-mask0_215_491" mask-type="luminance" x="-150%" y="-150%" height="400%" width="400%"><path id="dashboard-mockup-s-path38" d="M555.619 24.898H101.381v285.668h454.238V24.898Z" fill="#fff"/></mask></g></g><clipPath id="dashboard-mockup-u-clip0_215_491"><rect id="dashboard-mockup-s-rect1" width="657" height="354" rx="0" ry="0" transform="translate(0 .651)" fill="#fff"/></clipPath></g></svg>