<svg id="dashboard-mockup" xmlns="http://www.w3.org/2000/svg" xmlns:xlink="http://www.w3.org/1999/xlink" viewBox="0 0 657 355" shape-rendering="geometricPrecision" text-rendering="geometricPrecision">
<style>#dashboard-mockup-u-reblog_tr {
  animation: 2s linear infinite forwards dashboard-mockup-u-reblog_tr__tr;
}

@keyframes dashboard-mockup-u-reblog_tr__tr {
  0% {
    transform: translate(414.52px, 267.364px)rotate(0);
  }

  30% {
    transform: translate(414.52px, 267.364px)rotate(0);
  }

  50% {
    transform: translate(414.52px, 267.364px)rotate(360deg);
  }

  80% {
    transform: translate(414.52px, 267.364px)rotate(360deg);
  }

  100% {
    transform: translate(414.52px, 267.364px)rotate(0);
  }
}

#dashboard-mockup-u-reblog_ts {
  animation: 2s linear infinite forwards dashboard-mockup-u-reblog_ts__ts;
}

@keyframes dashboard-mockup-u-reblog_ts__ts {
  0% {
    transform: scale(1);
  }

  30% {
    transform: scale(1);
  }

  40% {
    transform: scale(1.6);
  }

  50% {
    transform: scale(1);
  }

  80% {
    transform: scale(1);
  }

  90% {
    transform: scale(1.6);
  }

  100% {
    transform: scale(1);
  }
}

#dashboard-mockup-s-g12_ts {
  animation: 2s linear infinite forwards dashboard-mockup-s-g12_ts__ts;
}

@keyframes dashboard-mockup-s-g12_ts__ts {
  0% {
    transform: translate(328.506px, 154.507px)scale(1);
  }

  30% {
    transform: translate(328.506px, 154.507px)scale(1);
  }

  40% {
    transform: translate(328.506px, 154.507px)scale(1.3);
  }

  50% {
    transform: translate(328.506px, 154.507px)scale(1);
  }

  80% {
    transform: translate(328.506px, 154.507px)scale(1);
  }

  90% {
    transform: translate(328.506px, 154.507px)scale(1.3);
  }

  100% {
    transform: translate(328.506px, 154.507px)scale(1);
  }
}

#dashboard-mockup-icon {
  animation: 2s step-end infinite forwards color-change-icon;
}

@keyframes color-change-icon {
  0% {
    fill: #a2c244;
  }

  50% {
    fill: #db8e62;
  }

  100% {
    fill: #a2c244;
  }
}

#dashboard-mockup-background {
  animation: 2s step-end infinite forwards color-change-background;
}

@keyframes color-change-background {
  0% {
    fill: #ebf3bb;
  }

  50% {
    fill: #f3edbb;
  }

  100% {
    fill: #ebf3bb;
  }
}

</style>
<defs><linearGradient id="dashboard-mockup-s-path15-fill" x1="221.414" y1="67.2191" x2="306.995" y2="67.2191" spreadMethod="pad" gradientUnits="userSpaceOnUse" gradientTransform="translate(0 0)"><stop id="dashboard-mockup-s-path15-fill-0" offset="0%" stop-color="#d3c89f"></stop><stop id="dashboard-mockup-s-path15-fill-1" offset="100%" stop-color="#e3e3cb"></stop></linearGradient><linearGradient id="dashboard-mockup-s-path26-fill" x1="217.903" y1="270.009" x2="245.991" y2="270.009" spreadMethod="pad" gradientUnits="userSpaceOnUse" gradientTransform="translate(0 0)"><stop id="dashboard-mockup-s-path26-fill-0" offset="0%" stop-color="#d3c89f"></stop><stop id="dashboard-mockup-s-path26-fill-1" offset="100%" stop-color="rgba(211,200,159,0.7)"></stop></linearGradient></defs><g id="dashboard-mockup-s-g1" transform="translate(0-1.979079)" clip-path="url('#dashboard-mockup-u-clip0_215_491')"><g id="dashboard-mockup-s-g2"><g id="dashboard-mockup-s-g3"><path id="dashboard-mockup-s-path1" d="M569.224,0.651184h-481.0096c-6.302,0-11.4108,5.131716-11.4108,11.462016v318.2918c0,6.33,5.1088,11.462,11.4108,11.462h481.0096c6.302,0,11.411-5.132,11.411-11.462v-318.2918c0-6.3303-5.109-11.462016-11.411-11.462016Z" fill="#c5c5c5"></path><path id="dashboard-mockup-s-path2" d="M567.908,2.85541h-478.8158c-5.5748,0-10.0942,4.5396-10.0942,10.13949v316.0871c0,5.6,4.5194,10.14,10.0942,10.14h478.8158c5.575,0,10.094-4.54,10.094-10.14v-316.0871c0-5.59989-4.519-10.13949-10.094-10.13949Z" fill="#010101"></path><path id="dashboard-mockup-s-path3" d="M0,339.662c0-.243.196492-.44.438878-.44h656.122122c.242,0,.439.197.439.44v1.764h-657v-1.764Z" fill="#b9b8bd"></path><path id="dashboard-mockup-s-path4" d="M0,341.426h657c-31.257,9.171-58.941,11.173-113.23,13.225h-428.345C68.0366,353.347,42.7625,350.419,0,341.426Z" fill="#7e7e7e"></path><path id="dashboard-mockup-s-path5" d="M555.619,24.8978h-454.238v285.6682h454.238v-285.6682Z" fill="#283137"></path><path id="dashboard-mockup-s-path6" d="M272.982,339.222h110.158v2.645c0,.73-.589,1.322-1.316,1.322h-107.525c-.728,0-1.317-.592-1.317-1.322v-2.645Z" fill="#c4c4c4"></path><path id="dashboard-mockup-s-path7" d="M378.751,339.222h4.389v2.645c0,.73-.589,1.322-1.316,1.322h-3.073v-3.967Z" fill="#a5a5a5"></path><path id="dashboard-mockup-s-path8" d="M277.371,339.222h-4.389v2.645c0,.73.589,1.322,1.317,1.322h3.072v-3.967Z" fill="#a5a5a5"></path></g><g id="dashboard-mockup-s-g4" mask="url('#dashboard-mockup-u-mask0_215_491')"><g id="dashboard-mockup-s-g5"><path id="dashboard-mockup-s-path10" d="M182.902,19.1668v297.1312" fill="none" stroke="#627480" stroke-width="0.5"></path><g id="dashboard-mockup-s-g6" mask="url('#dashboard-mockup-u-mask1_215_491')"><g id="dashboard-mockup-s-g7"><path id="dashboard-mockup-s-path11" d="M456.652,-187.59h-256.304c-1.94,0-3.511,1.579-3.511,3.526v216.897c0,1.9478,1.571,3.5268,3.511,3.5268h256.304c1.939,0,3.511-1.579,3.511-3.5268v-216.897c0-1.947-1.572-3.526-3.511-3.526Z" fill="#fff"></path></g><mask id="dashboard-mockup-u-mask1_215_491" mask-type="luminance" x="-150%" y="-150%" height="400%" width="400%"><path id="dashboard-mockup-s-path12" d="M456.652,-187.59h-256.304c-1.94,0-3.511,1.579-3.511,3.526v216.897c0,1.9478,1.571,3.5268,3.511,3.5268h256.304c1.939,0,3.511-1.579,3.511-3.5268v-216.897c0-1.947-1.572-3.526-3.511-3.526Z" fill="#fff"></path></mask></g><g id="dashboard-mockup-s-g8" mask="url('#dashboard-mockup-u-mask2_215_491')"><g id="dashboard-mockup-s-g9"><path id="dashboard-mockup-s-path13" d="M456.652,46.9401h-256.304c-1.94,0-3.511,1.579-3.511,3.5268v234.5301c0,1.948,1.571,3.527,3.511,3.527h256.304c1.939,0,3.511-1.579,3.511-3.527v-234.5301c0-1.9478-1.572-3.5268-3.511-3.5268Z" fill="#fff"></path><g id="dashboard-mockup-s-g10" opacity="0.7"><path id="dashboard-mockup-s-path14" d="M208.192,64.574c.001-.8328.331-1.6311.917-2.2201.587-.589,1.381-.9201,2.21-.9209h4.074l-.145-.1451c-.046-.0463-.082-.1009-.107-.1613-.025-.06-.038-.1248-.038-.19s.013-.1296.038-.19.061-.1151.107-.1614c.046-.0458.1-.0824.16-.1076.061-.0251.125-.0379.19-.0379s.129.0128.189.0379.114.0618.16.1076l.988.9919c.046.0463.082.101.107.1614.025.0599.038.1247.038.19c0,.0652-.013.13-.038.1904-.025.06-.061.1146-.107.1609l-.988.9919c-.092.0931-.218.1455-.349.1455-.132,0-.257-.0524-.35-.1455s-.145-.2195-.145-.3513.052-.2579.145-.3514l.145-.1441h-4.074c-.567.0008-1.111.2274-1.512.6304-.401.4025-.627.9491-.627,1.5187c0,.1314-.052.2579-.145.3509-.092.0926-.218.145-.349.145s-.257-.0524-.349-.145c-.093-.093-.145-.2195-.145-.3509Zm8.394-.496c-.131,0-.257.0525-.349.1455-.093.093-.145.2191-.145.3505-.001.5696-.226,1.1162-.627,1.5191-.401.4025-.945.6296-1.512.63h-4.073l.144-.145c.046-.0463.082-.101.107-.1614.025-.0599.038-.1247.038-.19c0-.0652-.013-.1296-.038-.19s-.061-.115-.107-.1613c-.046-.0459-.1-.0825-.16-.1076s-.124-.0379-.189-.0379-.13.0128-.19.0379-.114.0617-.16.1076l-.988.9919c-.046.0463-.082.1009-.107.1613-.025.06-.038.1248-.038.19c0,.0653.013.1301.038.1905.025.0599.061.1146.107.1609l.988.9919c.046.0463.1.0829.16.1076.06.0251.125.0379.19.0379s.129-.0128.189-.0379c.06-.0247.114-.0613.16-.1076s.082-.101.107-.1614c.025-.0599.038-.1247.038-.19c0-.0652-.013-.1296-.038-.19s-.061-.115-.107-.1613l-.144-.1442h4.073c.829-.0009,1.624-.3319,2.21-.9209s.916-1.3873.917-2.2201c0-.1314-.052-.2575-.145-.3505s-.218-.1455-.349-.1455Z" fill="#d3c89f"></path></g><path id="dashboard-mockup-s-path15" d="M304.362,61.9289h-80.315c-1.454,0-2.633,1.1843-2.633,2.6451s1.179,2.6451,2.633,2.6451h80.315c1.454,0,2.633-1.1843,2.633-2.6451s-1.179-2.6451-2.633-2.6451Z" fill="url('#dashboard-mockup-s-path15-fill')"></path><g id="dashboard-mockup-s-g11" opacity="0.7"><path id="dashboard-mockup-s-path16" d="M438.219,65.8965c-.349,0-.684-.1393-.931-.3875-.247-.2477-.385-.5841-.385-.935s.138-.6873.385-.935c.247-.2482.582-.3876.931-.3876.35,0,.685.1394.931.3876.246.2477.386.5841.386.935s-.14.6873-.386.935c-.246.2482-.581.3875-.931.3875Zm4.389,0c-.351,0-.685-.1393-.93-.3875-.246-.2477-.387-.5841-.387-.935s.141-.6873.387-.935c.245-.2482.579-.3876.93-.3876s.685.1394.931.3876c.245.2477.386.5841.386.935s-.141.6873-.386.935c-.246.2482-.58.3875-.931.3875Zm4.389,0c-.351,0-.685-.1393-.931-.3875-.245-.2477-.386-.5841-.386-.935s.141-.6873.386-.935c.246-.2482.58-.3876.931-.3876s.685.1394.93.3876c.246.2477.387.5841.387.935s-.141.6873-.387.935c-.245.2482-.579.3875-.93.3875Z" fill="#d3c89f"></path></g><path id="dashboard-mockup-s-path17" d="M217.903,82.2079h-7.022c-1.939,0-3.511,1.579-3.511,3.5267v7.0536c0,1.9478,1.572,3.5268,3.511,3.5268h7.022c1.939,0,3.511-1.579,3.511-3.5268v-7.0536c0-1.9477-1.572-3.5267-3.511-3.5267Z" fill="#f3f3d8"></path><path id="dashboard-mockup-s-path18" d="M211.923,92.2371c0,0-.494,0-.494-.4959c0-.496.494-1.9838,2.963-1.9838c2.468,0,2.962,1.4878,2.962,1.9838c0,.4959-.494.4959-.494.4959h-4.937Zm2.469-2.9757c.392,0,.769-.1569,1.047-.436.278-.2786.434-.6573.434-1.0518c0-.3946-.156-.7733-.434-1.0519-.278-.2791-.655-.436-1.047-.436-.393,0-.77.1569-1.048.436-.277.2786-.434.6573-.434,1.0519c0,.3945.157.7732.434,1.0518.278.2791.655.436,1.048.436Z" fill="#2d2d29"></path><path id="dashboard-mockup-s-path19" d="M267.935,86.6163h-38.621c-1.455,0-2.634,1.1843-2.634,2.6451c0,1.4609,1.179,2.6451,2.634,2.6451h38.621c1.454,0,2.633-1.1842,2.633-2.6451c0-1.4608-1.179-2.6451-2.633-2.6451Z" fill="#d3c89f"></path><path id="dashboard-mockup-background" d="M460.163,101.605h-263.326v105.803h263.326v-105.803Z" fill="#ebf3bb"></path>
<g id="dashboard-mockup-s-g12_ts" transform="translate(328.506012,154.507004) scale(1,1)">
<g id="dashboard-mockup-s-g12" transform="translate(-328.506012,-154.507004)" mask="url('#dashboard-mockup-u-mask3_215_491')"><g id="dashboard-mockup-icon" style="fill: #a2c244"><path id="dashboard-mockup-s-path21" d="M323.02,147.619c0,1.095-.434,2.147-1.205,2.922-.772.775-1.819,1.21-2.91,1.21s-2.138-.435-2.91-1.21c-.771-.775-1.204-1.827-1.204-2.922c0-1.096.433-2.148,1.204-2.923.772-.775,1.819-1.21,2.91-1.21s2.138.435,2.91,1.21c.771.775,1.205,1.827,1.205,2.923Z"></path><path id="dashboard-mockup-s-path22" d="M312.048,135.22c-1.456,0-2.851.58-3.879,1.614-1.03,1.033-1.607,2.435-1.607,3.896v27.553c0,1.462.577,2.864,1.607,3.897c1.028,1.033,2.423,1.614,3.879,1.614h32.916c1.454,0,2.85-.581,3.878-1.614c1.03-1.033,1.608-2.435,1.608-3.897v-27.553c0-1.461-.578-2.863-1.608-3.896-1.028-1.034-2.424-1.614-3.878-1.614h-32.916Zm32.916,2.755c.727,0,1.425.29,1.939.807s.804,1.217.804,1.948v17.91l-10.361-5.365c-.257-.129-.548-.174-.833-.128-.284.046-.546.18-.75.384l-10.176,10.223-7.296-4.883c-.264-.176-.58-.255-.895-.224s-.609.171-.834.395l-7.257,6.486v-24.798c0-.731.289-1.431.803-1.948s1.212-.807,1.94-.807h32.916Z"></path></g></g><mask id="dashboard-mockup-u-mask3_215_491" mask-type="luminance" x="-150%" y="-150%" height="400%" width="400%"><path id="dashboard-mockup-s-path23" d="M350.444,132.464h-43.888v44.085h43.888v-44.085Z" fill="#fff"></path></mask></g><path id="dashboard-mockup-s-path24" d="M446.997,217.989h-236.994c-1.454,0-2.633,1.184-2.633,2.645s1.179,2.645,2.633,2.645h236.994c1.454,0,2.633-1.184,2.633-2.645s-1.179-2.645-2.633-2.645Z" opacity="0.7" fill="#d3c89f"></path><path id="dashboard-mockup-s-path25" d="M365.366,228.569h-155.363c-1.454,0-2.633,1.184-2.633,2.645s1.179,2.645,2.633,2.645h155.363c1.454,0,2.633-1.184,2.633-2.645s-1.179-2.645-2.633-2.645Z" opacity="0.7" fill="#d3c89f"></path><path id="dashboard-mockup-s-path26" d="M243.358,264.718h-22.822c-1.454,0-2.633,1.185-2.633,2.646c0,1.46,1.179,2.645,2.633,2.645h22.822c1.454,0,2.633-1.185,2.633-2.645c0-1.461-1.179-2.646-2.633-2.646Z" fill="url('#dashboard-mockup-s-path26-fill')"></path><path id="dashboard-mockup-s-path27" d="M246.869,257.775h-29.844c-5.272,0-9.546,4.293-9.546,9.589c0,5.295,4.274,9.588,9.546,9.588h29.844c5.272,0,9.545-4.293,9.545-9.588c0-5.296-4.273-9.589-9.545-9.589Z" fill="none" stroke="#d3c89f" stroke-width="0.5" stroke-linejoin="round"></path><g id="dashboard-mockup-s-g14" mask="url('#dashboard-mockup-u-mask4_215_491')"><g id="dashboard-mockup-s-g15"><path id="dashboard-mockup-s-path28" d="M361.275,263.907c-.025-.011-.053-.016-.08-.014-.028.003-.055.012-.078.028-.023.015-.042.036-.055.061-.013.024-.02.052-.019.08v1.334c0,.154-.061.301-.169.41-.108.108-.254.169-.407.169-.769,0-2.32.006-3.802.951-1.134.722-2.293,2.037-2.99,4.485c1.176-1.137,2.518-1.754,3.693-2.081.722-.201,1.464-.319,2.213-.354.306-.014.613-.011.919.009h.015l.006.001-.054.576.057-.576c.143.014.274.081.37.188.096.106.149.245.149.388v1.334c0,.126.127.204.232.156l4.59-3.394c.016-.012.032-.023.049-.033.025-.015.045-.037.06-.062.014-.025.022-.054.022-.084c0-.029-.008-.058-.022-.084-.015-.025-.035-.046-.06-.061-.017-.011-.033-.021-.049-.033l-4.59-3.394Zm-1.384,6.218c-.078,0-.165.003-.257.007-.5.023-1.192.099-1.959.313-1.528.426-3.336,1.391-4.539,3.564-.065.118-.169.209-.293.258-.125.049-.262.053-.389.011s-.236-.127-.307-.24c-.072-.113-.102-.248-.086-.381.535-4.294,2.173-6.553,3.986-7.708c1.435-.914,2.911-1.09,3.844-1.123v-.764c0-.238.063-.472.185-.677.121-.205.295-.373.503-.487.209-.114.444-.169.681-.159.237.009.467.082.666.212l4.602,3.402c.19.12.347.285.455.482.109.197.166.419.166.644s-.057.447-.166.644c-.108.197-.265.363-.455.482l-4.602,3.402c-.199.13-.429.204-.666.213s-.472-.046-.681-.16c-.208-.113-.382-.281-.503-.486-.122-.205-.185-.439-.185-.678v-.771Z" opacity="0.7" fill="#d3c89f"></path><g id="dashboard-mockup-s-g16" mask="url('#dashboard-mockup-u-mask5_215_491')"><g id="dashboard-mockup-s-g17"><path id="dashboard-mockup-s-path29" d="M381.76,270.797c.092.092.161.203.205.325.043.122.059.252.047.381-.062.597-.178,1.188-.349,1.763c1.224-.284,1.972-.614,2.312-.787.193-.098.415-.121.623-.065.598.16,1.215.241,1.834.24c3.507,0,6.144-2.475,6.144-5.29s-2.637-5.291-6.144-5.291c-3.508,0-6.145,2.476-6.145,5.291c0,1.294.542,2.495,1.473,3.433Zm-.432,3.443c-.208.041-.417.079-.626.114-.176.028-.309-.156-.24-.32.078-.184.149-.372.214-.561l.003-.009c.218-.635.395-1.365.46-2.045-1.077-1.084-1.729-2.504-1.729-4.055c0-3.409,3.144-6.172,7.022-6.172s7.022,2.763,7.022,6.172c0,3.408-3.144,6.171-7.022,6.171-.696.001-1.388-.09-2.06-.269-.457.231-1.439.654-3.044.974Z" opacity="0.7" fill="#d3c89f"></path></g><mask id="dashboard-mockup-u-mask5_215_491" mask-type="luminance" x="-150%" y="-150%" height="400%" width="400%"><path id="dashboard-mockup-s-path30" d="M393.454,260.31h-14.044v14.107h14.044v-14.107Z" fill="#fff"></path></mask></g><g id="dashboard-mockup-u-reblog_tr" transform="translate(414.520004,267.36351) rotate(0)"><g id="dashboard-mockup-u-reblog_ts" transform="scale(1,1)"><g id="dashboard-mockup-icon" style="fill: #a2c244"><path id="dashboard-mockup-u-reblog" d="M405.962,267.364c.002-1.578.627-3.091,1.737-4.207c1.111-1.115,2.617-1.743,4.188-1.745h8.944l-.852-.855c-.124-.124-.193-.292-.193-.467c0-.176.069-.344.193-.468s.291-.194.466-.194c.174,0,.342.07.465.194l1.975,1.984c.062.061.11.134.144.214.032.081.05.167.05.253c0,.087-.018.173-.05.253-.034.081-.082.154-.144.215l-1.975,1.984c-.123.124-.291.194-.465.194-.175,0-.342-.07-.466-.194s-.193-.292-.193-.468c0-.175.069-.344.193-.468l.852-.854h-8.944c-1.222.001-2.394.489-3.257,1.357-.864.868-1.35,2.044-1.352,3.272c0,.175-.069.343-.192.467-.124.124-.291.194-.466.194s-.342-.07-.465-.194c-.124-.124-.193-.292-.193-.467Zm16.458-.662c-.175,0-.342.07-.466.194-.123.124-.193.292-.193.468-.001,1.227-.487,2.403-1.351,3.271s-2.035,1.356-3.257,1.357h-8.944l.852-.854c.061-.062.11-.135.143-.215s.05-.166.05-.253-.017-.173-.05-.253-.082-.154-.143-.215c-.061-.062-.134-.11-.214-.144-.08-.033-.165-.05-.252-.05-.086,0-.172.017-.252.05-.08.034-.153.082-.214.144l-1.974,1.984c-.062.061-.11.134-.144.215-.032.08-.05.166-.05.253s.018.172.05.253c.034.08.082.153.144.214l1.974,1.984c.061.062.134.11.214.144.08.033.166.05.252.05.087,0,.172-.017.252-.05.08-.034.153-.082.214-.144.061-.061.11-.134.143-.214.033-.081.05-.167.05-.253c0-.087-.017-.173-.05-.254-.033-.08-.082-.153-.143-.214l-.852-.855h8.944c1.571-.002,3.077-.63,4.188-1.745c1.11-1.116,1.735-2.629,1.737-4.206c0-.176-.069-.344-.193-.468-.123-.124-.291-.194-.465-.194Z" transform="translate(-414.520004,-267.36351)"></path></g></g></g><g id="dashboard-mockup-s-g18" mask="url('#dashboard-mockup-u-mask6_215_491')"><g id="dashboard-mockup-s-g19"><path id="dashboard-mockup-s-path31" d="M442.608,265.808l-.785-1.577c-.194-.391-.532-.952-1.01-1.406-.47-.447-1.036-.752-1.716-.752-1.471,0-2.633,1.17-2.633,2.575c0,1.068.486,1.822,1.639,2.971.296.295.633.613,1.007.964.97.917,2.181,2.058,3.498,3.583c1.317-1.525,2.528-2.666,3.498-3.583.373-.351.711-.67,1.005-.964c1.154-1.149,1.641-1.903,1.641-2.971c0-1.405-1.163-2.575-2.633-2.575-.68,0-1.246.305-1.716.752-.478.454-.816,1.015-1.009,1.406l-.786,1.577Zm.342,7.311c-.039.051-.092.091-.153.119-.057.028-.123.042-.189.042s-.132-.014-.189-.042c-.061-.028-.114-.068-.153-.119-1.409-1.677-2.677-2.876-3.726-3.862-1.813-1.71-2.954-2.785-2.954-4.609c0-1.909,1.571-3.456,3.511-3.456c1.404,0,2.388.925,2.989,1.77.228.322.399.631.522.875.154-.305.325-.597.522-.875.602-.845,1.585-1.77,2.989-1.77c1.94,0,3.511,1.547,3.511,3.456c0,1.824-1.141,2.899-2.953,4.609-1.049.987-2.318,2.187-3.727,3.862Z" opacity="0.7" fill="#d3c89f"></path></g><mask id="dashboard-mockup-u-mask6_215_491" mask-type="luminance" x="-150%" y="-150%" height="400%" width="400%"><path id="dashboard-mockup-s-path32" d="M449.63,260.31h-14.044v14.107h14.044v-14.107Z" fill="#fff"></path></mask></g></g><mask id="dashboard-mockup-u-mask4_215_491" mask-type="luminance" x="-150%" y="-150%" height="400%" width="400%"><path id="dashboard-mockup-s-path33" d="M449.63,256.783h-99.186v21.161h99.186v-21.161Z" fill="#fff"></path></mask></g></g><mask id="dashboard-mockup-u-mask2_215_491" mask-type="luminance" x="-150%" y="-150%" height="400%" width="400%"><path id="dashboard-mockup-s-path34" d="M456.652,46.9401h-256.304c-1.94,0-3.511,1.579-3.511,3.5268v234.5301c0,1.948,1.571,3.527,3.511,3.527h256.304c1.939,0,3.511-1.579,3.511-3.527v-234.5301c0-1.9478-1.572-3.5268-3.511-3.5268Z" fill="#fff"></path></mask></g><g id="dashboard-mockup-s-g20" mask="url('#dashboard-mockup-u-mask7_215_491')"><g id="dashboard-mockup-s-g21"><path id="dashboard-mockup-s-path35" d="M456.652,299.104h-256.304c-1.94,0-3.511,1.579-3.511,3.527v216.897c0,1.948,1.571,3.527,3.511,3.527h256.304c1.939,0,3.511-1.579,3.511-3.527v-216.897c0-1.948-1.572-3.527-3.511-3.527Z" fill="#fff"></path></g><mask id="dashboard-mockup-u-mask7_215_491" mask-type="luminance" x="-150%" y="-150%" height="400%" width="400%"><path id="dashboard-mockup-s-path36" d="M456.652,299.104h-256.304c-1.94,0-3.511,1.579-3.511,3.527v216.897c0,1.948,1.571,3.527,3.511,3.527h256.304c1.939,0,3.511-1.579,3.511-3.527v-216.897c0-1.948-1.572-3.527-3.511-3.527Z" fill="#fff"></path></mask></g><path id="dashboard-mockup-s-path37" d="M474.317,19.1668v297.1312" fill="none" stroke="#627480" stroke-width="0.5"></path></g><mask id="dashboard-mockup-u-mask0_215_491" mask-type="luminance" x="-150%" y="-150%" height="400%" width="400%"><path id="dashboard-mockup-s-path38" d="M555.619,24.8978h-454.238v285.6682h454.238v-285.6682Z" fill="#fff"></path></mask></g></g><clipPath id="dashboard-mockup-u-clip0_215_491"><rect id="dashboard-mockup-s-rect1" width="657" height="354" rx="0" ry="0" transform="translate(0 0.651184)" fill="#fff"></rect></clipPath></g></svg>