<svg id="jessrheb-icon" viewBox="0 0 236 236" fill="none" xmlns="http://www.w3.org/2000/svg" xmlns:xlink="http://www.w3.org/1999/xlink" shape-rendering="geometricPrecision" text-rendering="geometricPrecision">
<circle cx="118" cy="118" r="118" fill="#2A1A1F"></circle>
<g class="j-logo-fill" style="fill: #f3c75b">
<path d="M108.516 29.522C110.725 29.522 112.516 27.7311 112.516 25.522C112.516 23.3128 110.725 21.522 108.516 21.522C106.307 21.522 104.516 23.3128 104.516 25.522C104.516 27.7311 106.307 29.522 108.516 29.522Z"></path>
<path d="M92 49C92 42 96.2934 68.7313 104.995 89.0341ZM120.944 117.5C118.465 112.15 116.615 112.703 114.5 108ZM114.5 108C112.26 103.02 106.832 93.3222 104.995 89.0341ZM114.5 108L104.995 89.0341ZM114.5 108C144.309 148.507 167 179.5 153.5 200Z"></path></g>
<g class="j-logo-stroke" style="stroke: #f3c75b">
<path d="M92 49C92 42 96.2934 68.7313 104.995 89.0341M104.995 89.0341C106.832 93.3222 112.26 103.02 114.5 108M104.995 89.0341L114.5 108M120.944 117.5C118.465 112.15 116.615 112.703 114.5 108M114.5 108C144.309 148.507 167 179.5 153.5 200" stroke-width="4"></path></g>
<g class="j-logo-fill" style="fill: #f3c75b">
<path d="M91.7828 44.3911C91.5419 44.5301 91.2043 46.9605 90.7701 51.6823C90.3359 56.4041 89.3296 60.9524 87.7513 65.327C86.1729 69.7017 84.2404 74.0683 81.9538 78.4268C79.6672 82.7853 77.2882 86.9888 74.8166 91.0373C72.345 95.0859 70.0355 98.8417 67.888 102.305C65.7405 105.768 63.5657 109.277 61.3636 112.833C59.1615 116.39 56.6596 120.036 53.858 123.774C51.0563 127.511 48.0161 131.481 44.626 134.623C48.1603 131.525 51.8601 128.333 54.7914 124.613C57.7227 120.893 60.3384 117.261 62.6387 113.717C64.9389 110.173 67.1955 106.69 69.4083 103.268C71.6212 99.8462 73.999 96.1299 76.5417 92.1193C79.0844 88.1088 81.5433 83.9204 83.9184 79.5542C86.2936 75.188 88.3209 70.7751 90.0003 66.3154C91.6798 61.8557 92.6985 57.1597 93.0566 52.2274C93.4147 47.2951 93.4905 44.7359 93.2839 44.5497M91.7828 44.3911C92.0237 44.2522 92.2825 44.1973 92.5591 44.2265C92.8357 44.2558 93.0773 44.3635 93.2839 44.5497M91.7828 44.3911C91.5419 44.5301 91.42 44.6177 91.4172 44.6541C91.4143 44.6905 91.3587 45.4426 91.2502 46.9104C91.1418 48.3782 91.1155 50.0889 91.1716 52.0424C91.2276 53.9958 91.2948 55.9368 91.3732 57.8653C91.4516 59.7938 91.5513 61.4085 91.6723 62.7096C91.7934 64.0107 92.745 67.9721 94.5274 74.5937C96.3097 81.2154 98.8498 87.8177 102.148 94.4007C105.446 100.984 109.149 107.455 113.257 113.816C117.365 120.176 121.531 126.425 125.755 132.561C129.978 138.697 133.912 144.7 137.558 150.57C141.203 156.44 144.031 161.532 146.04 165.845C148.048 170.159 149.65 174.42 150.843 178.628C152.037 182.837 152.669 186.756 152.739 190.385C152.809 194.014 152.192 197.094 150.888 199.623C149.584 202.153 147.417 203.992 144.389 205.14C141.361 206.287 137.463 206.556 132.694 205.945C127.925 205.335 123.956 203.887 120.787 201.603C117.619 199.318 115.089 196.656 113.197 193.616C111.305 190.576 109.873 187.621 108.901 184.751C107.928 181.881 107.25 179.511 106.867 177.643C106.484 175.774 106.157 171.952 105.886 166.178C105.614 160.403 106.038 154.033 107.157 147.066C108.276 140.1 109.988 133.067 112.293 125.967C114.599 118.868 117.377 112.248 120.628 106.108C123.879 99.9676 127.482 94.8227 131.438 90.6729C135.394 86.5232 139.728 82.9337 144.441 79.9044C149.154 76.8752 154.244 73.404 159.711 69.491C165.178 65.578 170.954 58.8519 177.039 49.3127C183.124 39.7735 183.001 39.5958 176.668 48.7795C170.335 57.9632 164.395 64.4288 158.847 68.1761C153.3 71.9234 148.071 75.3155 143.16 78.3523C138.25 81.3892 133.717 85.0398 129.561 89.3043C125.404 93.5688 121.632 98.8278 118.244 105.081C114.856 111.335 111.966 118.077 109.575 125.308C107.183 132.539 105.41 139.736 104.254 146.9C103.098 154.064 102.662 160.615 102.944 166.554C103.226 172.492 103.574 176.454 103.987 178.438C104.401 180.422 105.143 182.952 106.214 186.029C107.285 189.105 108.892 192.296 111.035 195.602C113.179 198.908 116.045 201.79 119.635 204.249C123.225 206.708 127.65 208.223 132.911 208.794C138.171 209.364 142.539 208.892 146.015 207.378C149.491 205.863 151.989 203.577 153.511 200.52C155.033 197.463 155.748 193.97 155.657 190.042C155.566 186.114 154.896 181.967 153.647 177.602C152.398 173.236 150.74 168.844 148.675 164.425C146.609 160.007 143.741 154.842 140.069 148.931C136.397 143.02 132.457 137.009 128.25 130.896C124.043 124.784 119.911 118.594 115.856 112.326C111.8 106.058 108.151 99.726 104.909 93.3291C101.667 86.9323 99.1469 80.5208 97.3477 74.0947C95.5484 67.6687 94.593 63.8183 94.4812 62.5437C94.3695 61.2691 94.2675 59.6733 94.1753 57.7563C94.083 55.8393 94.0008 53.9158 93.9287 51.9857C93.8567 50.0555 93.7837 48.3974 93.71 47.0112C93.6362 45.625 93.5984 44.9148 93.5965 44.8804C93.5947 44.8461 93.4905 44.7359 93.2839 44.5497"></path></g>
<g class="j-logo-stroke" style="stroke: #f3c75b">
<path d="M91.7828 44.3911C91.5419 44.5301 91.2043 46.9605 90.7701 51.6823C90.3359 56.4041 89.3296 60.9524 87.7513 65.327C86.1729 69.7017 84.2404 74.0683 81.9538 78.4268C79.6672 82.7853 77.2882 86.9888 74.8166 91.0373C72.345 95.0859 70.0355 98.8417 67.888 102.305C65.7405 105.768 63.5657 109.277 61.3636 112.833C59.1615 116.39 56.6596 120.036 53.858 123.774C51.0563 127.511 48.0161 131.481 44.626 134.623C48.1603 131.525 51.8601 128.333 54.7914 124.613C57.7227 120.893 60.3384 117.261 62.6387 113.717C64.9389 110.173 67.1955 106.69 69.4083 103.268C71.6212 99.8462 73.999 96.1299 76.5417 92.1193C79.0844 88.1088 81.5433 83.9204 83.9184 79.5542C86.2936 75.188 88.3209 70.7751 90.0003 66.3154C91.6798 61.8557 92.6985 57.1597 93.0566 52.2274C93.4147 47.2951 93.4905 44.7359 93.2839 44.5497M91.7828 44.3911C92.0237 44.2522 92.2825 44.1973 92.5591 44.2265C92.8357 44.2558 93.0773 44.3635 93.2839 44.5497M91.7828 44.3911C91.5419 44.5301 91.42 44.6177 91.4172 44.6541C91.4143 44.6905 91.3587 45.4426 91.2502 46.9104C91.1418 48.3782 91.1155 50.0889 91.1716 52.0424C91.2276 53.9958 91.2948 55.9368 91.3732 57.8653C91.4516 59.7938 91.5513 61.4085 91.6723 62.7096C91.7934 64.0107 92.745 67.9721 94.5274 74.5937C96.3097 81.2154 98.8498 87.8177 102.148 94.4007C105.446 100.984 109.149 107.455 113.257 113.816C117.365 120.176 121.531 126.425 125.755 132.561C129.978 138.697 133.912 144.7 137.558 150.57C141.203 156.44 144.031 161.532 146.04 165.845C148.048 170.159 149.65 174.42 150.843 178.628C152.037 182.837 152.669 186.756 152.739 190.385C152.809 194.014 152.192 197.094 150.888 199.623C149.584 202.153 147.417 203.992 144.389 205.14C141.361 206.287 137.463 206.556 132.694 205.945C127.925 205.335 123.956 203.887 120.787 201.603C117.619 199.318 115.089 196.656 113.197 193.616C111.305 190.576 109.873 187.621 108.901 184.751C107.928 181.881 107.25 179.511 106.867 177.643C106.484 175.774 106.157 171.952 105.886 166.178C105.614 160.403 106.038 154.033 107.157 147.066C108.276 140.1 109.988 133.067 112.293 125.967C114.599 118.868 117.377 112.248 120.628 106.108C123.879 99.9676 127.482 94.8227 131.438 90.6729C135.394 86.5232 139.728 82.9337 144.441 79.9044C149.154 76.8752 154.244 73.404 159.711 69.491C165.178 65.578 170.954 58.8519 177.039 49.3127C183.124 39.7735 183.001 39.5958 176.668 48.7795C170.335 57.9632 164.395 64.4288 158.847 68.1761C153.3 71.9234 148.071 75.3155 143.16 78.3523C138.25 81.3892 133.717 85.0398 129.561 89.3043C125.404 93.5688 121.632 98.8278 118.244 105.081C114.856 111.335 111.966 118.077 109.575 125.308C107.183 132.539 105.41 139.736 104.254 146.9C103.098 154.064 102.662 160.615 102.944 166.554C103.226 172.492 103.574 176.454 103.987 178.438C104.401 180.422 105.143 182.952 106.214 186.029C107.285 189.105 108.892 192.296 111.035 195.602C113.179 198.908 116.045 201.79 119.635 204.249C123.225 206.708 127.65 208.223 132.911 208.794C138.171 209.364 142.539 208.892 146.015 207.378C149.491 205.863 151.989 203.577 153.511 200.52C155.033 197.463 155.748 193.97 155.657 190.042C155.566 186.114 154.896 181.967 153.647 177.602C152.398 173.236 150.74 168.844 148.675 164.425C146.609 160.007 143.741 154.842 140.069 148.931C136.397 143.02 132.457 137.009 128.25 130.896C124.043 124.784 119.911 118.594 115.856 112.326C111.8 106.058 108.151 99.726 104.909 93.3291C101.667 86.9323 99.1469 80.5208 97.3477 74.0947C95.5484 67.6687 94.593 63.8183 94.4812 62.5437C94.3695 61.2691 94.2675 59.6733 94.1753 57.7563C94.083 55.8393 94.0008 53.9158 93.9287 51.9857C93.8567 50.0555 93.7837 48.3974 93.71 47.0112C93.6362 45.625 93.5984 44.9148 93.5965 44.8804C93.5947 44.8461 93.4905 44.7359 93.2839 44.5497" stroke-width="4" stroke-linecap="round"></path></g>
<g class="j-logo-fill j-logo-stroke" style="fill: #f3c75b; stroke: #f3c75b">
<path d="M44.6457 134.621C44.6457 134.621 43.9568 135.24 42.5792 136.478C41.2015 137.716 40.5126 138.335 40.5126 138.335C40.5126 138.335 39.794 138.907 38.3568 140.051C36.9197 141.195 34.6704 142.749 31.6091 144.713C28.5478 146.677 28.5473 146.676 31.6075 144.711C34.6676 142.746 36.9166 141.191 38.3543 140.048L44.6457 134.621Z" stroke-width="4" stroke-linecap="round"></path>
</g></svg>
