<svg id="jessrheb-icon" viewBox="0 0 236 236" fill="none" xmlns="http://www.w3.org/2000/svg" shape-rendering="geometricPrecision" text-rendering="geometricPrecision"><circle cx="118" cy="118" r="118" fill="#2A1A1F"/><g class="j-logo-fill" style="fill:#f3c75b"><path d="M108.516 29.522a4 4 0 1 0 0-8 4 4 0 0 0 0 8ZM92 49c0-7 4.293 19.731 12.995 40.034Zm28.944 68.5c-2.479-5.35-4.329-4.797-6.444-9.5ZM114.5 108c-2.24-4.98-7.668-14.678-9.505-18.966Zm0 0-9.505-18.966Zm0 0c29.809 40.507 52.5 71.5 39 92Z"/></g><path d="M92 49c0-7 4.293 19.731 12.995 40.034m0 0c1.837 4.288 7.265 13.986 9.505 18.966m-9.505-18.966L114.5 108m6.444 9.5c-2.479-5.35-4.329-4.797-6.444-9.5m0 0c29.809 40.507 52.5 71.5 39 92" stroke-width="4" class="j-logo-stroke" style="stroke:#f3c75b"/><path d="M91.783 44.391c-.241.14-.579 2.57-1.013 7.291a54.83 54.83 0 0 1-3.019 13.645c-1.578 4.375-3.51 8.741-5.797 13.1a223.15 223.15 0 0 1-7.137 12.61 1909.418 1909.418 0 0 1-6.929 11.268c-2.148 3.463-4.322 6.972-6.524 10.528-2.203 3.557-4.704 7.203-7.506 10.941-2.802 3.737-5.842 7.707-9.232 10.849 3.534-3.098 7.234-6.29 10.165-10.01 2.932-3.72 5.547-7.352 7.848-10.896 2.3-3.544 4.556-7.027 6.77-10.449a1474.74 1474.74 0 0 0 7.133-11.149 218.03 218.03 0 0 0 7.376-12.565A105.509 105.509 0 0 0 90 66.315c1.68-4.46 2.698-9.155 3.057-14.088.358-4.932.433-7.491.227-7.677m-1.501-.159c.24-.139.5-.194.776-.164.277.029.518.137.725.323m-1.501-.159c-.241.14-.363.227-.366.263l-.167 2.256c-.108 1.468-.135 3.179-.078 5.132.056 1.954.123 3.895.201 5.823a95.84 95.84 0 0 0 .3 4.845c.12 1.3 1.072 5.262 2.854 11.884 1.783 6.621 4.323 13.224 7.621 19.807a205.18 205.18 0 0 0 11.109 19.415 766.376 766.376 0 0 0 12.498 18.745 458.792 458.792 0 0 1 11.803 18.009c3.645 5.87 6.473 10.962 8.482 15.275 2.008 4.314 3.61 8.575 4.803 12.783 1.194 4.209 1.826 8.128 1.896 11.757.07 3.629-.547 6.709-1.851 9.238-1.304 2.53-3.471 4.369-6.499 5.517-3.028 1.147-6.926 1.416-11.695.805-4.769-.61-8.738-2.058-11.907-4.342-3.168-2.285-5.698-4.947-7.59-7.987-1.892-3.04-3.324-5.995-4.296-8.865-.973-2.87-1.651-5.24-2.034-7.108-.383-1.869-.71-5.691-.981-11.465-.272-5.775.152-12.145 1.271-19.112 1.119-6.966 2.831-13.999 5.136-21.099 2.306-7.099 5.084-13.719 8.335-19.859 3.251-6.14 6.854-11.285 10.81-15.435 3.956-4.15 8.29-7.74 13.003-10.769 4.713-3.029 9.803-6.5 15.27-10.413 5.467-3.913 11.243-10.64 17.328-20.178 6.085-9.54 5.962-9.717-.371-.534-6.333 9.184-12.273 15.65-17.821 19.397-5.547 3.747-10.776 7.14-15.687 10.176-4.91 3.037-9.443 6.688-13.599 10.952-4.157 4.265-7.929 9.524-11.317 15.777-3.388 6.254-6.278 12.996-8.669 20.227-2.392 7.231-4.165 14.428-5.321 21.592-1.156 7.164-1.592 13.715-1.31 19.654.282 5.938.63 9.9 1.043 11.884.414 1.984 1.156 4.514 2.227 7.591 1.071 3.076 2.678 6.267 4.821 9.573 2.144 3.306 5.01 6.188 8.6 8.647 3.59 2.459 8.015 3.974 13.276 4.545 5.26.57 9.628.098 13.104-1.416 3.476-1.515 5.974-3.801 7.496-6.858 1.522-3.057 2.237-6.55 2.146-10.478-.091-3.928-.761-8.075-2.01-12.44-1.249-4.366-2.907-8.758-4.972-13.177-2.066-4.418-4.934-9.583-8.606-15.494a460.174 460.174 0 0 0-11.819-18.035 779.99 779.99 0 0 1-12.394-18.57 208.325 208.325 0 0 1-10.947-18.997c-3.242-6.397-5.762-12.808-7.561-19.234-1.8-6.426-2.755-10.277-2.867-11.551-.111-1.275-.213-2.87-.306-4.788-.092-1.917-.174-3.84-.246-5.77-.072-1.93-.145-3.589-.219-4.975l-.113-2.13c-.002-.035-.106-.145-.313-.331" class="j-logo-fill" style="fill:#f3c75b"/><path d="M91.783 44.391c-.241.14-.579 2.57-1.013 7.291a54.83 54.83 0 0 1-3.019 13.645c-1.578 4.375-3.51 8.741-5.797 13.1a223.15 223.15 0 0 1-7.137 12.61 1909.418 1909.418 0 0 1-6.929 11.268c-2.148 3.463-4.322 6.972-6.524 10.528-2.203 3.557-4.704 7.203-7.506 10.941-2.802 3.737-5.842 7.707-9.232 10.849 3.534-3.098 7.234-6.29 10.165-10.01 2.932-3.72 5.547-7.352 7.848-10.896 2.3-3.544 4.556-7.027 6.77-10.449a1474.74 1474.74 0 0 0 7.133-11.149 218.03 218.03 0 0 0 7.376-12.565A105.509 105.509 0 0 0 90 66.315c1.68-4.46 2.698-9.155 3.057-14.088.358-4.932.433-7.491.227-7.677m-1.501-.159c.24-.139.5-.194.776-.164.277.029.518.137.725.323m-1.501-.159c-.241.14-.363.227-.366.263l-.167 2.256c-.108 1.468-.135 3.179-.078 5.132.056 1.954.123 3.895.201 5.823a95.84 95.84 0 0 0 .3 4.845c.12 1.3 1.072 5.262 2.854 11.884 1.783 6.621 4.323 13.224 7.621 19.807a205.18 205.18 0 0 0 11.109 19.415 766.376 766.376 0 0 0 12.498 18.745 458.792 458.792 0 0 1 11.803 18.009c3.645 5.87 6.473 10.962 8.482 15.275 2.008 4.314 3.61 8.575 4.803 12.783 1.194 4.209 1.826 8.128 1.896 11.757.07 3.629-.547 6.709-1.851 9.238-1.304 2.53-3.471 4.369-6.499 5.517-3.028 1.147-6.926 1.416-11.695.805-4.769-.61-8.738-2.058-11.907-4.342-3.168-2.285-5.698-4.947-7.59-7.987-1.892-3.04-3.324-5.995-4.296-8.865-.973-2.87-1.651-5.24-2.034-7.108-.383-1.869-.71-5.691-.981-11.465-.272-5.775.152-12.145 1.271-19.112 1.119-6.966 2.831-13.999 5.136-21.099 2.306-7.099 5.084-13.719 8.335-19.859 3.251-6.14 6.854-11.285 10.81-15.435 3.956-4.15 8.29-7.74 13.003-10.769 4.713-3.029 9.803-6.5 15.27-10.413 5.467-3.913 11.243-10.64 17.328-20.178 6.085-9.54 5.962-9.717-.371-.534-6.333 9.184-12.273 15.65-17.821 19.397-5.547 3.747-10.776 7.14-15.687 10.176-4.91 3.037-9.443 6.688-13.599 10.952-4.157 4.265-7.929 9.524-11.317 15.777-3.388 6.254-6.278 12.996-8.669 20.227-2.392 7.231-4.165 14.428-5.321 21.592-1.156 7.164-1.592 13.715-1.31 19.654.282 5.938.63 9.9 1.043 11.884.414 1.984 1.156 4.514 2.227 7.591 1.071 3.076 2.678 6.267 4.821 9.573 2.144 3.306 5.01 6.188 8.6 8.647 3.59 2.459 8.015 3.974 13.276 4.545 5.26.57 9.628.098 13.104-1.416 3.476-1.515 5.974-3.801 7.496-6.858 1.522-3.057 2.237-6.55 2.146-10.478-.091-3.928-.761-8.075-2.01-12.44-1.249-4.366-2.907-8.758-4.972-13.177-2.066-4.418-4.934-9.583-8.606-15.494a460.174 460.174 0 0 0-11.819-18.035 779.99 779.99 0 0 1-12.394-18.57 208.325 208.325 0 0 1-10.947-18.997c-3.242-6.397-5.762-12.808-7.561-19.234-1.8-6.426-2.755-10.277-2.867-11.551-.111-1.275-.213-2.87-.306-4.788-.092-1.917-.174-3.84-.246-5.77-.072-1.93-.145-3.589-.219-4.975l-.113-2.13c-.002-.035-.106-.145-.313-.331" stroke-width="4" stroke-linecap="round" class="j-logo-stroke" style="stroke:#f3c75b"/><path d="m44.646 134.621-2.067 1.857-2.066 1.857-2.156 1.716c-1.437 1.144-3.687 2.698-6.748 4.662-3.061 1.964-3.062 1.963-.002-.002s5.31-3.52 6.747-4.663l6.292-5.427Z" stroke-width="4" stroke-linecap="round" class="j-logo-fill j-logo-stroke" style="fill:#f3c75b;stroke:#f3c75b"/></svg>