<svg width="1920" height="1080" viewBox="0 0 1920 1080" fill="none" xmlns="http://www.w3.org/2000/svg">
<g clip-path="url('#clip0_235_163')">
<mask id="mask0_235_163" style="mask-type: luminance" maskUnits="userSpaceOnUse" x="0" y="0" width="1920" height="1080">
<path d="M1920 0H0V1080H1920V0Z" fill="white"></path>
</mask>
<g mask="url('#mask0_235_163')">
<path d="M1920 0H0V1080H1920V0Z" fill="#F3F3D8"></path>
<path d="M6.10352e-05 702.374C132.329 719.28 261.41 653.474 372.293 579.3C481.81 506.04 557.665 398.817 623.989 284.966C696.604 160.316 771.525 32.847 774.649 -111.378C778.07 -269.337 746.483 -437.778 642.214 -556.482C538.155 -674.946 370.279 -701.41 218.583 -744.425C68.2611 -787.05 -96.2559 -874.418 -236.565 -805.667C-377.654 -736.534 -403.769 -549.662 -469.825 -407.106C-518.533 -301.989 -528.405 -189.634 -571.791 -82.211C-633.382 70.288 -844.713 204.968 -777.686 355.157C-710.915 504.772 -465.403 424.599 -315.799 491.393C-197.811 544.072 -128.172 685.999 6.10352e-05 702.374Z" fill="#F9F9F1"></path>
<path d="M1920 1786.95C2073.54 1805.44 2253.58 1883.64 2374.55 1787.29C2497.71 1689.18 2414.76 1478.99 2484.11 1337.62C2556.69 1189.68 2793.53 1120.42 2782.38 956.008C2771.48 795.228 2571.46 720.383 2436.3 632.62C2330.69 564.039 2201.33 561.823 2088.68 505.543C1941.83 432.175 1841.28 245.988 1677.29 253.411C1515.54 260.733 1372.08 397.169 1298.33 541.32C1228.67 677.48 1295.88 837.97 1300.01 990.859C1303.36 1114.51 1281.33 1236.48 1320.31 1353.87C1362.44 1480.73 1422.39 1607.41 1530.76 1685.67C1641.69 1765.79 1784.14 1770.59 1920 1786.95Z" fill="#F7F1C0"></path>
</g>
</g>
<defs>
<clipPath id="clip0_235_163">
<rect width="1920" height="1080" fill="white"></rect>
</clipPath>
</defs>
</svg>
