<svg width="283" height="230" fill="none" xmlns="http://www.w3.org/2000/svg"><g clip-path="url('#clip0_233_403')"><rect width="283" height="230" rx="16" fill="url('#paint0_linear_233_403')"/><path d="M0 0h283v83c0 17.673-14.327 32-32 32H0V0Z" fill="#2A1A1F"/><path d="M262.491 62.296c2.4 2.592 3.648 5.952 3.648 10.08V91h-21.408V78.904c0-4.128-1.056-7.2-3.264-9.024-2.112-1.92-5.76-2.88-10.944-2.88H39.195v24H17.979V23.32h218.304c19.68 0 29.568 5.856 29.568 17.568v1.056c0 7.2-4.224 12.096-12.672 14.88 3.84 1.056 7.008 2.88 9.312 5.472Zm-18.912-16.992v-.096c0-1.92-.672-3.456-2.112-4.704-1.344-1.152-3.552-1.824-6.432-1.824H39.195v13.344h195.84c2.88 0 5.088-.672 6.432-1.824 1.44-1.248 2.112-2.88 2.112-4.896Z" fill="#F3C75B"/><path d="M0 147c0-17.673 14.327-32 32-32h251v115H0v-83Z" fill="#F7F1C0"/><path d="M241.918 177.488h24.672v.96c0 2.016-.288 4.128-1.056 6.24-.672 2.112-2.112 4.512-4.32 7.2-2.208 2.592-4.992 4.896-8.448 6.912-3.552 2.016-8.352 3.744-14.592 5.184-6.24 1.344-13.344 2.016-21.408 2.016H66.046c-5.953 0-11.329-.384-16.32-1.248-4.896-.864-9.024-1.92-12.384-3.36-3.36-1.344-6.336-2.976-9.024-4.992-2.593-1.92-4.609-3.936-6.049-5.952-1.44-2.016-2.688-4.128-3.647-6.528-.96-2.304-1.633-4.32-1.92-6.24-.289-1.92-.385-3.744-.385-5.664v-2.688c0-2.88.288-5.664.864-8.256.576-2.592 1.92-5.568 4.032-8.736 2.113-3.264 4.8-6.048 8.256-8.352 3.36-2.304 8.256-4.224 14.496-5.856 6.336-1.536 13.632-2.304 22.08-2.304h150.721c8.16 0 15.36.672 21.696 2.016 6.24 1.344 11.04 3.072 14.496 4.992 3.456 2.016 6.24 4.32 8.448 6.912 2.112 2.496 3.552 4.896 4.128 6.912.672 2.016.96 3.936.96 5.856v1.056h-24.672a9.82 9.82 0 0 0-.768-2.016c-.288-.576-1.056-1.536-2.304-2.784-1.152-1.248-2.688-2.304-4.416-3.168-1.824-.864-4.416-1.632-7.872-2.304-3.36-.768-7.296-1.056-11.808-1.056-5.28 0-156.48.48-160.225 1.44-3.84 1.056-6.623 2.4-8.544 4.224-1.92 1.728-3.264 3.552-4.032 5.568-.767 1.92-1.248 4.032-1.248 6.336v1.152c0 2.112.48 4.224 1.44 6.336.864 2.016 2.304 3.936 4.224 5.856 1.92 1.92 4.8 3.456 8.544 4.608 3.84 1.152 154.945 1.728 160.033 1.728 15.264 0 24.288-3.84 26.976-11.712.096-.096.096-.192.096-.288Z" fill="#1A1F22"/></g><defs><linearGradient id="paint0_linear_233_403" x1="0" y1="115" x2="283" y2="115" gradientUnits="userSpaceOnUse"><stop offset=".469" stop-color="#2A1A1F"/><stop offset=".49" stop-color="#F7F1C0"/></linearGradient><clipPath id="clip0_233_403"><rect width="283" height="230" rx="16" fill="#fff"/></clipPath></defs></svg>