<svg width="1920" height="1080" fill="none" xmlns="http://www.w3.org/2000/svg"><g clip-path="url('#clip0_235_163')"><mask id="mask0_235_163" style="mask-type:luminance" maskUnits="userSpaceOnUse" x="0" y="0" width="1920" height="1080"><path d="M1920 0H0v1080h1920V0Z" fill="#fff"/></mask><g mask="url('#mask0_235_163')"><path d="M1920 0H0v1080h1920V0Z" fill="#F3F3D8"/><path d="M0 702.374c132.329 16.906 261.41-48.9 372.293-123.074 109.517-73.26 185.372-180.483 251.696-294.334 72.615-124.65 147.536-252.119 150.66-396.344 3.421-157.959-28.166-326.4-132.435-445.104C538.155-674.946 370.279-701.41 218.583-744.425 68.261-787.05-96.256-874.418-236.565-805.667c-141.089 69.133-167.204 256.005-233.26 398.561-48.708 105.117-58.58 217.472-101.966 324.895-61.591 152.499-272.922 287.179-205.895 437.368 66.771 149.615 312.283 69.442 461.887 136.236 117.988 52.679 187.627 194.606 315.8 210.981Z" fill="#F9F9F1"/><path d="M1920 1786.95c153.54 18.49 333.58 96.69 454.55.34 123.16-98.11 40.21-308.3 109.56-449.67 72.58-147.94 309.42-217.2 298.27-381.612-10.9-160.78-210.92-235.625-346.08-323.388-105.61-68.581-234.97-70.797-347.62-127.077-146.85-73.368-247.4-259.555-411.39-252.132-161.75 7.322-305.21 143.758-378.96 287.909-69.66 136.16-2.45 296.65 1.68 449.539 3.35 123.651-18.68 245.621 20.3 363.011 42.13 126.86 102.08 253.54 210.45 331.8 110.93 80.12 253.38 84.92 389.24 101.28Z" fill="#F7F1C0"/></g></g><defs><clipPath id="clip0_235_163"><path fill="#fff" d="M0 0h1920v1080H0z"/></clipPath></defs></svg>