<svg width="116" height="32" viewBox="0 0 116 32" fill="none" xmlns="http://www.w3.org/2000/svg">
<g clip-path="url('#clip0_216_616')">
<path d="M0 13.7637V0.236287H12.939C14.0891 0.236287 15.0295 0.433193 15.7599 0.827004C16.5061 1.22082 17.0656 1.73933 17.4386 2.38256C17.8117 3.02579 17.9982 3.74121 17.9982 4.52883C17.9982 5.34271 17.7495 6.10408 17.2521 6.81294C16.7703 7.50867 16.0319 8.06001 15.0372 8.46695L18.3712 13.7637H13.8482L11.0273 9.07736H4.03324V13.7637H0ZM4.03324 6.39944H11.75C12.4028 6.39944 12.9157 6.23535 13.2887 5.90717C13.6773 5.56587 13.8716 5.13268 13.8716 4.6076C13.8716 4.24004 13.7861 3.93155 13.6151 3.68214C13.4441 3.43272 13.2032 3.24238 12.8924 3.11111C12.5815 2.97984 12.2007 2.91421 11.75 2.91421H4.03324V6.39944ZM20.3948 13.7637V0.236287H36.8076V2.91421H24.4281V5.57243H35.3621V8.21097H24.4281V11.0661H36.9941V13.7637H20.3948ZM39.4007 13.7637V0.236287H52.1066C52.9614 0.236287 53.7308 0.380684 54.4146 0.66948C55.0985 0.945148 55.6425 1.3324 56.0466 1.83122C56.4507 2.33005 56.6527 2.91421 56.6527 3.58369C56.6527 4.12189 56.5284 4.60103 56.2797 5.0211C56.0466 5.44116 55.7202 5.78903 55.3005 6.0647C54.8964 6.34037 54.4457 6.54383 53.9484 6.67511V6.75387C54.539 6.85888 55.0674 7.05579 55.5337 7.34458C56.0155 7.63338 56.3885 8.0075 56.6527 8.46695C56.9325 8.91327 57.0724 9.44491 57.0724 10.0619C57.0724 10.8758 56.847 11.5584 56.3963 12.1097C55.9611 12.661 55.3705 13.0745 54.6245 13.3502C53.8784 13.6259 53.0469 13.7637 52.1299 13.7637H39.4007ZM43.434 11.1252H51.0575C51.617 11.1252 52.0677 11.007 52.4097 10.7707C52.7671 10.5213 52.9459 10.1406 52.9459 9.62869C52.9459 9.3399 52.8682 9.08392 52.7127 8.86076C52.5729 8.6376 52.3553 8.46695 52.06 8.3488C51.7647 8.21753 51.3994 8.1519 50.9642 8.1519H43.434V11.1252ZM43.434 5.63151H50.6612C51.0653 5.63151 51.3994 5.57243 51.6636 5.45429C51.9434 5.33615 52.1532 5.17206 52.2931 4.96203C52.4485 4.75199 52.5262 4.50914 52.5262 4.23347C52.5262 3.77403 52.363 3.42616 52.0367 3.18987C51.7103 2.95359 51.2828 2.83544 50.7544 2.83544H43.434V5.63151ZM59.2947 13.7637V0.236287H63.3279V10.8889H73.5393V13.7637H59.2947ZM83.6962 14C81.5669 14 79.7173 13.7243 78.1476 13.173C76.5933 12.6217 75.3966 11.8275 74.5573 10.7904C73.718 9.74027 73.2984 8.47351 73.2984 6.99016C73.2984 5.5068 73.718 4.2466 74.5573 3.20956C75.3966 2.1594 76.5933 1.36521 78.1476 0.827004C79.7173 0.275668 81.5669 0 83.6962 0C85.841 0 87.6906 0.275668 89.2448 0.827004C90.799 1.36521 91.9958 2.1594 92.8351 3.20956C93.6744 4.2466 94.094 5.5068 94.094 6.99016C94.094 8.47351 93.6744 9.74027 92.8351 10.7904C91.9958 11.8275 90.799 12.6217 89.2448 13.173C87.6906 13.7243 85.841 14 83.6962 14ZM83.6962 11.3024C84.6132 11.3024 85.4525 11.2171 86.214 11.0464C86.9756 10.8626 87.6362 10.6001 88.1957 10.2588C88.7552 9.91749 89.1826 9.49086 89.4779 8.9789C89.7888 8.45382 89.9442 7.8631 89.9442 7.20675V6.75387C89.9442 6.09752 89.7888 5.51336 89.4779 5.00141C89.1826 4.48945 88.7552 4.06282 88.1957 3.72152C87.6362 3.38022 86.9756 3.12424 86.214 2.95359C85.4525 2.76981 84.6132 2.67792 83.6962 2.67792C82.7792 2.67792 81.9399 2.76981 81.1783 2.95359C80.4168 3.12424 79.7562 3.38022 79.1967 3.72152C78.6372 4.06282 78.202 4.48945 77.8911 5.00141C77.5958 5.51336 77.4482 6.09752 77.4482 6.75387V7.20675C77.4482 7.8631 77.5958 8.45382 77.8911 8.9789C78.202 9.49086 78.6372 9.91749 79.1967 10.2588C79.7562 10.6001 80.4168 10.8626 81.1783 11.0464C81.9399 11.2171 82.7792 11.3024 83.6962 11.3024ZM105.532 14C102.299 14 99.867 13.4224 98.2351 12.2672C96.6187 11.112 95.8105 9.35959 95.8105 7.00985C95.8105 5.47398 96.2224 4.18753 97.0461 3.15049C97.8854 2.10033 99.0899 1.31271 100.66 0.787623C102.245 0.262541 104.141 0 106.348 0C107.747 0 109.029 0.105016 110.195 0.315049C111.376 0.511955 112.402 0.820441 113.272 1.24051C114.143 1.66057 114.811 2.18565 115.277 2.81575C115.744 3.44585 115.977 4.18753 115.977 5.04079H112.06C112.06 4.6076 111.905 4.24004 111.594 3.93812C111.298 3.63619 110.887 3.39334 110.358 3.20956C109.845 3.02579 109.255 2.89451 108.586 2.81575C107.934 2.72386 107.242 2.67792 106.511 2.67792C105.548 2.67792 104.662 2.76324 103.854 2.9339C103.045 3.09142 102.346 3.34083 101.755 3.68214C101.18 4.01031 100.73 4.43038 100.403 4.94233C100.092 5.45429 99.937 6.05813 99.937 6.75387V7.22644C99.937 8.19784 100.186 8.98547 100.683 9.58931C101.18 10.18 101.888 10.6132 102.805 10.8889C103.722 11.1646 104.817 11.3024 106.092 11.3024C107.413 11.3024 108.509 11.2039 109.379 11.007C110.265 10.8101 110.933 10.5213 111.384 10.1406C111.835 9.75996 112.06 9.30708 112.06 8.782V8.64416H105.929V6.20253H116V13.7637H113.575L113.179 12.0506C112.588 12.5101 111.897 12.8842 111.104 13.173C110.327 13.4487 109.464 13.6521 108.516 13.7834C107.584 13.9278 106.589 14 105.532 14Z" fill="#2A1A1F"></path>
<path d="M8.22827 31.6512C6.42347 31.6512 4.91307 31.3952 3.69707 30.8832C2.48107 30.3584 1.56588 29.5904 0.951477 28.5792C0.349877 27.5552 0.0490723 26.3008 0.0490723 24.816C0.0490723 22.64 0.74667 20.9632 2.14187 19.7856C3.53707 18.5952 5.55947 18 8.20907 18C9.70667 18 11.0251 18.2176 12.1643 18.6528C13.3035 19.088 14.1931 19.7088 14.8331 20.5152C15.4731 21.3216 15.7931 22.2816 15.7931 23.3952H12.5483C12.5483 22.8064 12.3627 22.3072 11.9915 21.8976C11.6331 21.4752 11.1211 21.1552 10.4555 20.9376C9.80268 20.72 9.03468 20.6112 8.15148 20.6112C7.17868 20.6112 6.34028 20.7712 5.63628 21.0912C4.93228 21.4112 4.39467 21.8656 4.02347 22.4544C3.65227 23.0432 3.46667 23.7472 3.46667 24.5664V25.0464C3.46667 25.8656 3.65227 26.576 4.02347 27.1776C4.39467 27.7664 4.93228 28.2208 5.63628 28.5408C6.34028 28.8608 7.17868 29.0208 8.15148 29.0208C9.08588 29.0208 9.88588 28.9184 10.5515 28.7136C11.2171 28.5088 11.7291 28.2016 12.0875 27.792C12.4587 27.3824 12.6443 26.8832 12.6443 26.2944H15.8123C15.8123 27.3824 15.4987 28.3296 14.8715 29.136C14.2443 29.9424 13.3611 30.5632 12.2219 30.9984C11.0955 31.4336 9.76427 31.6512 8.22827 31.6512ZM17.7963 31.4208V18.2304H21.1179V23.2992H29.6619V18.2304H32.9835V31.4208H29.6619V26.1024H21.1179V31.4208H17.7963ZM35.5487 31.4208V18.2304H49.0655V20.8416H38.8703V23.4336H47.8751V26.0064H38.8703V28.7904H49.2191V31.4208H35.5487ZM58.8045 31.6512C56.9997 31.6512 55.4893 31.3952 54.2733 30.8832C53.0573 30.3584 52.1421 29.5904 51.5277 28.5792C50.9261 27.5552 50.6253 26.3008 50.6253 24.816C50.6253 22.64 51.3229 20.9632 52.7181 19.7856C54.1133 18.5952 56.1357 18 58.7853 18C60.2829 18 61.6013 18.2176 62.7405 18.6528C63.8797 19.088 64.7693 19.7088 65.4093 20.5152C66.0493 21.3216 66.3693 22.2816 66.3693 23.3952H63.1245C63.1245 22.8064 62.9389 22.3072 62.5677 21.8976C62.2093 21.4752 61.6973 21.1552 61.0317 20.9376C60.3789 20.72 59.6109 20.6112 58.7277 20.6112C57.7549 20.6112 56.9165 20.7712 56.2125 21.0912C55.5085 21.4112 54.9709 21.8656 54.5997 22.4544C54.2285 23.0432 54.0429 23.7472 54.0429 24.5664V25.0464C54.0429 25.8656 54.2285 26.576 54.5997 27.1776C54.9709 27.7664 55.5085 28.2208 56.2125 28.5408C56.9165 28.8608 57.7549 29.0208 58.7277 29.0208C59.6621 29.0208 60.4621 28.9184 61.1277 28.7136C61.7933 28.5088 62.3053 28.2016 62.6637 27.792C63.0349 27.3824 63.2205 26.8832 63.2205 26.2944H66.3885C66.3885 27.3824 66.0749 28.3296 65.4477 29.136C64.8205 29.9424 63.9373 30.5632 62.7981 30.9984C61.6717 31.4336 60.3405 31.6512 58.8045 31.6512ZM68.3725 31.4208V18.2304H71.6941V25.0464L79.4317 18.2304H83.6941L77.5117 23.7024L83.8285 31.4208H79.6429L75.0733 25.6992L71.6941 28.4448V31.4208H68.3725ZM85.1687 31.4208V18.2304H98.6849V20.8416H88.4903V23.4336H97.4949V26.0064H88.4903V28.7904H98.8389V31.4208H85.1687ZM100.821 31.4208V18.2304H111.477C112.425 18.2304 113.199 18.4224 113.801 18.8064C114.415 19.1904 114.875 19.696 115.183 20.3232C115.491 20.9504 115.643 21.648 115.643 22.416C115.643 23.2096 115.439 23.952 115.029 24.6432C114.633 25.3216 114.025 25.8592 113.205 26.256L115.951 31.4208H112.227L109.903 26.8512H104.143V31.4208H100.821ZM104.143 24.24H110.499C111.035 24.24 111.459 24.08 111.765 23.76C112.085 23.4272 112.245 23.0048 112.245 22.4928C112.245 22.1344 112.175 21.8336 112.035 21.5904C111.893 21.3472 111.695 21.1616 111.439 21.0336C111.183 20.9056 110.869 20.8416 110.499 20.8416H104.143V24.24Z" fill="#283137"></path>
</g>
<defs>
<clipPath id="clip0_216_616">
<rect width="116" height="31.6512" fill="white"></rect>
</clipPath>
</defs>
</svg>
