<svg width="283" height="230" viewBox="0 0 283 230" fill="none" xmlns="http://www.w3.org/2000/svg">
<g clip-path="url(#clip0_233_403)">
<rect width="283" height="230" rx="16" fill="url(#paint0_linear_233_403)"/>
<path d="M0 0H283V83C283 100.673 268.673 115 251 115H0V0Z" fill="#2A1A1F"/>
<path d="M262.491 62.296C264.891 64.888 266.139 68.248 266.139 72.376V91H244.731V78.904C244.731 74.776 243.675 71.704 241.467 69.88C239.355 67.96 235.707 67 230.523 67H39.1948V91H17.9788V23.32H236.283C255.963 23.32 265.851 29.176 265.851 40.888V41.944C265.851 49.144 261.627 54.04 253.179 56.824C257.019 57.88 260.187 59.704 262.491 62.296ZM243.579 45.304V45.208C243.579 43.288 242.907 41.752 241.467 40.504C240.123 39.352 237.915 38.68 235.035 38.68H39.1948V52.024H235.035C237.915 52.024 240.123 51.352 241.467 50.2C242.907 48.952 243.579 47.32 243.579 45.304Z" fill="#F3C75B"/>
<path d="M0 147C0 129.327 14.3269 115 32 115H283V230H0V147Z" fill="#F7F1C0"/>
<path d="M241.918 177.488H266.59V178.448C266.59 180.464 266.302 182.576 265.534 184.688C264.862 186.8 263.422 189.2 261.214 191.888C259.006 194.48 256.222 196.784 252.766 198.8C249.214 200.816 244.414 202.544 238.174 203.984C231.934 205.328 224.83 206 216.766 206H66.0455C60.0935 206 54.7175 205.616 49.7255 204.752C44.8295 203.888 40.7015 202.832 37.3415 201.392C33.9815 200.048 31.0055 198.416 28.3175 196.4C25.7255 194.48 23.7095 192.464 22.2695 190.448C20.8295 188.432 19.5815 186.32 18.6215 183.92C17.6615 181.616 16.9895 179.6 16.7015 177.68C16.4135 175.76 16.3175 173.936 16.3175 172.016V169.328C16.3175 166.448 16.6055 163.664 17.1815 161.072C17.7575 158.48 19.1015 155.504 21.2135 152.336C23.3255 149.072 26.0135 146.288 29.4695 143.984C32.8295 141.68 37.7255 139.76 43.9655 138.128C50.3015 136.592 57.5975 135.824 66.0455 135.824H216.766C224.926 135.824 232.126 136.496 238.462 137.84C244.702 139.184 249.502 140.912 252.958 142.832C256.414 144.848 259.198 147.152 261.406 149.744C263.518 152.24 264.958 154.64 265.534 156.656C266.206 158.672 266.494 160.592 266.494 162.512V163.568H241.822C241.63 162.8 241.342 162.128 241.054 161.552C240.766 160.976 239.998 160.016 238.75 158.768C237.598 157.52 236.062 156.464 234.334 155.6C232.51 154.736 229.918 153.968 226.462 153.296C223.102 152.528 219.166 152.24 214.654 152.24C209.374 152.24 58.1735 152.72 54.4295 153.68C50.5895 154.736 47.8055 156.08 45.8855 157.904C43.9655 159.632 42.6215 161.456 41.8535 163.472C41.0855 165.392 40.6055 167.504 40.6055 169.808V170.96C40.6055 173.072 41.0855 175.184 42.0455 177.296C42.9095 179.312 44.3495 181.232 46.2695 183.152C48.1895 185.072 51.0695 186.608 54.8135 187.76C58.6535 188.912 209.758 189.488 214.846 189.488C230.11 189.488 239.134 185.648 241.822 177.776C241.918 177.68 241.918 177.584 241.918 177.488Z" fill="#1A1F22"/>
</g>
<defs>
<linearGradient id="paint0_linear_233_403" x1="0" y1="115" x2="283" y2="115" gradientUnits="userSpaceOnUse">
<stop offset="0.46875" stop-color="#2A1A1F"/>
<stop offset="0.489583" stop-color="#F7F1C0"/>
</linearGradient>
<clipPath id="clip0_233_403">
<rect width="283" height="230" rx="16" fill="white"/>
</clipPath>
</defs>
</svg>
